<svg viewBox="0 0 1600 1000" xmlns="http://www.w3.org/2000/svg">
  <defs>
    <linearGradient id="bg" x1="0" y1="0" x2="1" y2="1">
      <stop offset="0%" stop-color="#0a0a0a" />
      <stop offset="100%" stop-color="#000000" />
    </linearGradient>
    <radialGradient id="glow" cx="50%" cy="20%" r="65%">
      <stop offset="0%" stop-color="rgba(59,130,246,0.3)" />
      <stop offset="100%" stop-color="rgba(59,130,246,0)" />
    </radialGradient>
    <pattern id="grid" width="40" height="40" patternUnits="userSpaceOnUse">
      <path d="M40 0H0V40" fill="none" stroke="rgba(255,255,255,0.05)" stroke-width="1" />
    </pattern>
  </defs>

  <rect width="1600" height="1000" fill="url(#bg)" />
  <rect width="1600" height="1000" fill="url(#glow)" />
  <rect width="1600" height="1000" fill="url(#grid)" />

  <g fill="none" stroke="rgba(255,255,255,0.18)" stroke-width="1.5">
    <rect x="420" y="320" width="220" height="140" rx="10" />
    <rect x="700" y="260" width="220" height="140" rx="10" />
    <rect x="980" y="360" width="220" height="140" rx="10" />
    <rect x="700" y="540" width="220" height="140" rx="10" />
  </g>

  <g stroke="rgba(96,165,250,0.55)" stroke-width="2">
    <path d="M640 390 L700 330" fill="none" />
    <path d="M920 330 L980 430" fill="none" />
    <path d="M810 400 L810 540" fill="none" />
  </g>

  <g fill="rgba(96,165,250,0.85)">
    <circle cx="530" cy="390" r="6" />
    <circle cx="810" cy="330" r="6" />
    <circle cx="1090" cy="430" r="6" />
    <circle cx="810" cy="610" r="6" />
  </g>

  <g fill="rgba(255,255,255,0.55)">
    <rect x="460" y="380" width="140" height="6" rx="3" />
    <rect x="740" y="320" width="140" height="6" rx="3" />
    <rect x="1020" y="420" width="140" height="6" rx="3" />
    <rect x="740" y="600" width="140" height="6" rx="3" />
  </g>
</svg>
