<svg viewBox="0 0 1600 1000" xmlns="http://www.w3.org/2000/svg">
  <defs>
    <linearGradient id="bg" x1="0" y1="0" x2="1" y2="1">
      <stop offset="0%" stop-color="#0a0a0a" />
      <stop offset="100%" stop-color="#000000" />
    </linearGradient>
    <radialGradient id="glow" cx="75%" cy="75%" r="65%">
      <stop offset="0%" stop-color="rgba(59,130,246,0.3)" />
      <stop offset="100%" stop-color="rgba(59,130,246,0)" />
    </radialGradient>
    <pattern id="grid" width="40" height="40" patternUnits="userSpaceOnUse">
      <path d="M40 0H0V40" fill="none" stroke="rgba(255,255,255,0.05)" stroke-width="1" />
    </pattern>
  </defs>

  <rect width="1600" height="1000" fill="url(#bg)" />
  <rect width="1600" height="1000" fill="url(#glow)" />
  <rect width="1600" height="1000" fill="url(#grid)" />

  <g fill="none" stroke="rgba(255,255,255,0.16)" stroke-width="1.5">
    <rect x="360" y="260" width="90" height="480" rx="6" />
    <rect x="470" y="260" width="90" height="480" rx="6" />
    <rect x="580" y="260" width="90" height="480" rx="6" />
  </g>
  <g fill="rgba(255,255,255,0.12)">
    <rect x="372" y="290" width="66" height="18" />
    <rect x="372" y="330" width="66" height="18" />
    <rect x="372" y="370" width="66" height="18" />
    <rect x="482" y="300" width="66" height="18" />
    <rect x="482" y="340" width="66" height="18" />
    <rect x="592" y="290" width="66" height="18" />
    <rect x="592" y="330" width="66" height="18" />
  </g>

  <g stroke="rgba(96,165,250,0.6)" stroke-width="2" fill="none" stroke-linecap="round">
    <path d="M700 700 L900 620 L1080 660 L1250 560" />
  </g>
  <g fill="rgba(96,165,250,0.9)">
    <circle cx="700" cy="700" r="8" />
    <circle cx="900" cy="620" r="8" />
    <circle cx="1080" cy="660" r="8" />
    <circle cx="1250" cy="560" r="10" />
  </g>
  <circle cx="1250" cy="560" r="26" fill="none" stroke="rgba(96,165,250,0.4)" stroke-width="1.5" />
</svg>
